<svg width="223" height="65" viewBox="0 0 223 65" fill="none" xmlns="http://www.w3.org/2000/svg">
<path d="M83.4122 17.3897C83.4122 18.3917 83.9153 19.2 84.9173 19.802C85.9194 20.4041 87.1317 20.8907 88.5503 21.2535C89.9688 21.6164 91.3874 22.0329 92.8059 22.4989C94.2245 22.9649 95.4368 23.7607 96.4389 24.8865C97.4409 26.0123 97.944 27.4556 97.944 29.2205C97.944 31.5751 97.0368 33.4596 95.2183 34.8782C93.3997 36.2967 91.074 37.006 88.2369 37.006C85.7091 37.006 83.5483 36.4534 81.7462 35.3442C79.9442 34.239 78.6658 32.7669 77.903 30.9318L81.7957 28.7009C82.2122 29.9463 82.9916 30.9318 84.1338 31.6617C85.2761 32.3875 86.641 32.7504 88.2369 32.7504C89.7255 32.7504 90.9544 32.4658 91.9235 31.8926C92.8925 31.3194 93.3791 30.4287 93.3791 29.2205C93.3791 28.2184 92.876 27.4102 91.874 26.8081C90.8719 26.2061 89.6596 25.7195 88.241 25.3525C86.8225 24.9855 85.4039 24.5649 83.9854 24.0824C82.5668 23.5999 81.3545 22.804 80.3524 21.6948C79.3504 20.5855 78.8473 19.167 78.8473 17.4391C78.8473 15.1917 79.7215 13.3361 81.4699 11.8846C83.2184 10.4289 85.408 9.70312 88.039 9.70312C90.1503 9.70312 92.0266 10.1773 93.6719 11.1299C95.3172 12.0825 96.5543 13.4062 97.3832 15.101L93.5935 17.2288C92.6575 15.0144 90.8059 13.9052 88.039 13.9052C86.7565 13.9052 85.6678 14.2062 84.7689 14.8124C83.8617 15.4268 83.4122 16.2845 83.4122 17.3897Z" fill="#C60000"/>
<path d="M124.48 33.0677C121.816 35.6986 118.579 37.014 114.772 37.014C110.966 37.014 107.737 35.6986 105.09 33.0677C102.443 30.4368 101.119 27.1997 101.119 23.3605C101.119 19.5173 102.443 16.2843 105.09 13.6534C107.737 11.0225 110.966 9.70703 114.772 9.70703C118.579 9.70703 121.816 11.0225 124.48 13.6534C127.143 16.2843 128.475 19.5214 128.475 23.3605C128.48 27.2038 127.148 30.4409 124.48 33.0677ZM114.772 32.6017C117.37 32.6017 119.548 31.7192 121.313 29.9543C123.077 28.1894 123.96 25.9914 123.96 23.3605C123.96 20.7296 123.077 18.5317 121.313 16.7668C119.548 15.0018 117.366 14.1194 114.772 14.1194C112.212 14.1194 110.047 15.0018 108.282 16.7668C106.517 18.5317 105.634 20.7296 105.634 23.3605C105.634 25.9914 106.517 28.1894 108.282 29.9543C110.047 31.7192 112.212 32.6017 114.772 32.6017Z" fill="#C60000"/>
<path d="M148.162 9.70703C151.795 9.70703 154.892 11.0307 157.457 13.6781C160.018 16.3255 161.3 19.5544 161.3 23.3605C161.3 27.1667 160.018 30.3955 157.457 33.0429C154.896 35.6903 151.799 37.014 148.162 37.014C143.87 37.014 140.599 35.3027 138.348 31.8759V46.7253H133.833V10.3792H138.348V14.8451C140.599 11.4184 143.87 9.70703 148.162 9.70703ZM147.589 32.6553C150.183 32.6553 152.364 31.7646 154.129 29.9832C155.894 28.2017 156.777 25.9956 156.777 23.3647C156.777 20.7337 155.894 18.5276 154.129 16.7461C152.364 14.9647 150.183 14.074 147.589 14.074C144.958 14.074 142.76 14.9647 140.995 16.7461C139.23 18.5276 138.348 20.7337 138.348 23.3647C138.348 25.9956 139.23 28.2017 140.995 29.9832C142.76 31.7646 144.962 32.6553 147.589 32.6553Z" fill="#C60000"/>
<path d="M188.195 0H192.711V36.342H188.195V31.876C185.944 35.3028 182.673 37.0141 178.385 37.0141C174.752 37.0141 171.651 35.6904 169.09 33.043C166.529 30.3956 165.247 27.1668 165.247 23.3606C165.247 19.5545 166.525 16.3256 169.09 13.6782C171.651 11.0308 174.748 9.70714 178.385 9.70714C182.678 9.70714 185.948 11.4185 188.195 14.8452V0ZM178.954 32.6554C181.585 32.6554 183.783 31.7647 185.548 29.9833C187.313 28.2018 188.195 25.9957 188.195 23.3648C188.195 20.7338 187.313 18.5277 185.548 16.7463C183.783 14.9648 181.585 14.0741 178.954 14.0741C176.356 14.0741 174.179 14.9648 172.414 16.7463C170.649 18.5277 169.766 20.7338 169.766 23.3648C169.766 25.9957 170.649 28.2018 172.414 29.9833C174.179 31.7647 176.36 32.6554 178.954 32.6554Z" fill="#C60000"/>
<path d="M217.485 10.3379H222V36.2964H217.485V32.5604C215.65 35.5006 212.846 36.9727 209.072 36.9727C206.025 36.9727 203.588 36.0119 201.753 34.0903C199.918 32.1686 199.002 29.5666 199.002 26.2759V10.3379H203.518V26.0161C203.518 28.1274 204.087 29.7645 205.229 30.9233C206.371 32.082 207.947 32.6635 209.955 32.6635C212.206 32.6635 214.021 31.9625 215.406 30.5604C216.792 29.1584 217.485 27.0017 217.485 24.0945V10.3379Z" fill="#C60000"/>
<path d="M37.2759 58.7923C41.5436 57.9615 42.6351 45.1241 39.7139 30.1191C36.7927 15.1142 30.965 3.62379 26.6973 4.45463C22.4297 5.28546 21.3382 18.1229 24.2594 33.1278C27.1806 48.1328 33.0083 59.6232 37.2759 58.7923Z" stroke="#C60000" stroke-width="1.35582" stroke-miterlimit="10"/>
<path d="M56.6899 44.0995C58.6502 40.2188 49.1784 31.4854 35.5339 24.5928C21.8895 17.7003 9.23925 15.2587 7.2789 19.1394C5.31855 23.0201 14.7904 31.7535 28.4349 38.6461C42.0793 45.5386 54.7295 47.9802 56.6899 44.0995Z" stroke="#C60000" stroke-width="1.35582" stroke-miterlimit="10"/>
<path d="M36.8265 37.8325C48.8843 28.4361 56.4925 18.0387 53.82 14.6093C51.1475 11.1798 39.2063 16.0171 27.1485 25.4135C15.0908 34.8099 7.48252 45.2073 10.155 48.6368C12.8275 52.0662 24.7687 47.229 36.8265 37.8325Z" stroke="#C60000" stroke-width="1.35582" stroke-miterlimit="10"/>
<path d="M8.32435 22.7522C10.374 22.7522 12.0357 21.0906 12.0357 19.0409C12.0357 16.9912 10.374 15.3296 8.32435 15.3296C6.27465 15.3296 4.61304 16.9912 4.61304 19.0409C4.61304 21.0906 6.27465 22.7522 8.32435 22.7522Z" fill="#C60000"/>
<path d="M52.8845 19.0413C54.9342 19.0413 56.5958 17.3797 56.5958 15.33C56.5958 13.2803 54.9342 11.6187 52.8845 11.6187C50.8348 11.6187 49.1732 13.2803 49.1732 15.33C49.1732 17.3797 50.8348 19.0413 52.8845 19.0413Z" fill="#C60000"/>
<path d="M40.5118 59.5187C41.3528 57.6494 40.5191 55.4522 38.6498 54.6112C36.7805 53.7702 34.5833 54.6039 33.7424 56.4732C32.9014 58.3425 33.735 60.5397 35.6043 61.3807C37.4736 62.2217 39.6708 61.388 40.5118 59.5187Z" fill="#C60000"/>
<path d="M31.8164 62.6325C48.8357 62.6325 62.6326 48.8356 62.6326 31.8162C62.6326 14.7969 48.8357 1 31.8164 1C14.797 1 1.00012 14.7969 1.00012 31.8162C1.00012 48.8356 14.797 62.6325 31.8164 62.6325Z" stroke="#C60000" stroke-width="1.35587" stroke-miterlimit="10"/>
<path d="M82.6543 51.9906C83.5691 51.9906 84.3283 52.2971 84.9318 52.9101C85.5448 53.5137 85.8513 54.2682 85.8513 55.1736C85.8513 56.0695 85.5448 56.824 84.9318 57.437C84.3283 58.05 83.5691 58.3565 82.6543 58.3565H80.3767V61.8931H79.0611V51.9906H82.6543ZM82.6543 57.1257C83.2013 57.1257 83.6539 56.9418 84.0123 56.574C84.3707 56.1968 84.5499 55.73 84.5499 55.1736C84.5499 54.6077 84.3707 54.1409 84.0123 53.7731C83.6539 53.4053 83.2013 53.2214 82.6543 53.2214H80.3767V57.1257H82.6543ZM92.5957 54.8199H93.8265V61.8931H92.5957V60.6765C91.9827 61.6101 91.0915 62.077 89.9221 62.077C88.9318 62.077 88.0878 61.7186 87.3899 61.0018C86.692 60.2757 86.343 59.3939 86.343 58.3565C86.343 57.3191 86.692 56.442 87.3899 55.7253C88.0878 54.9991 88.9318 54.636 89.9221 54.636C91.0915 54.636 91.9827 55.1028 92.5957 56.0365V54.8199ZM90.0777 60.8887C90.7944 60.8887 91.3933 60.6482 91.8743 60.1672C92.3552 59.6768 92.5957 59.0732 92.5957 58.3565C92.5957 57.6397 92.3552 57.0409 91.8743 56.5599C91.3933 56.0695 90.7944 55.8243 90.0777 55.8243C89.3704 55.8243 88.7762 56.0695 88.2952 56.5599C87.8143 57.0409 87.5738 57.6397 87.5738 58.3565C87.5738 59.0732 87.8143 59.6768 88.2952 60.1672C88.7762 60.6482 89.3704 60.8887 90.0777 60.8887ZM98.9023 62.077C97.8555 62.077 96.9926 61.7327 96.3136 61.0443C95.6345 60.3558 95.295 59.4693 95.295 58.3848C95.295 57.1776 95.4695 56.2487 95.8184 55.5979C96.1768 54.9472 96.903 54.3578 97.997 53.8297C98.195 53.7353 98.4638 53.6127 98.8033 53.4618C99.1523 53.311 99.4069 53.1978 99.5672 53.1223C99.7275 53.0375 99.9067 52.929 100.105 52.797C100.303 52.6555 100.449 52.5046 100.543 52.3443C100.647 52.1745 100.722 51.9812 100.77 51.7643L101.76 52.3301C101.732 52.481 101.694 52.6225 101.647 52.7545C101.6 52.8771 101.529 52.9997 101.435 53.1223C101.35 53.2355 101.274 53.3345 101.208 53.4194C101.142 53.5043 101.029 53.5986 100.869 53.7023C100.718 53.7966 100.605 53.8674 100.529 53.9145C100.463 53.9617 100.326 54.0324 100.119 54.1267C99.9209 54.221 99.7841 54.287 99.7087 54.3248C99.6427 54.3531 99.4871 54.4191 99.2418 54.5228C98.9966 54.6171 98.8458 54.6784 98.7892 54.7067C98.1479 54.9802 97.6763 55.2584 97.3745 55.5414C97.0822 55.8243 96.87 56.1827 96.7379 56.6165C97.0397 56.2392 97.417 55.961 97.8697 55.7818C98.3223 55.6027 98.775 55.5131 99.2277 55.5131C100.114 55.5131 100.864 55.8149 101.477 56.4184C102.099 57.022 102.411 57.8001 102.411 58.7526C102.411 59.7145 102.081 60.5114 101.42 61.1433C100.76 61.7657 99.9209 62.077 98.9023 62.077ZM97.2472 60.2662C97.6905 60.6812 98.2422 60.8887 98.9023 60.8887C99.5625 60.8887 100.105 60.6859 100.529 60.2804C100.963 59.8749 101.18 59.3656 101.18 58.7526C101.18 58.1207 100.972 57.6067 100.557 57.2106C100.152 56.8051 99.6144 56.6023 98.9448 56.6023C98.3412 56.6023 97.7942 56.7957 97.3038 57.1823C96.8228 57.5596 96.5823 58.0594 96.5823 58.6818C96.5823 59.3231 96.804 59.8513 97.2472 60.2662ZM109.687 61.0018C108.961 61.7186 108.079 62.077 107.042 62.077C106.004 62.077 105.123 61.7186 104.397 61.0018C103.68 60.2851 103.321 59.4033 103.321 58.3565C103.321 57.3097 103.68 56.4279 104.397 55.7111C105.123 54.9944 106.004 54.636 107.042 54.636C108.079 54.636 108.961 54.9944 109.687 55.7111C110.413 56.4279 110.777 57.3097 110.777 58.3565C110.777 59.4033 110.413 60.2851 109.687 61.0018ZM107.042 60.8745C107.749 60.8745 108.343 60.634 108.824 60.1531C109.305 59.6721 109.546 59.0732 109.546 58.3565C109.546 57.6397 109.305 57.0409 108.824 56.5599C108.343 56.0789 107.749 55.8384 107.042 55.8384C106.344 55.8384 105.755 56.0789 105.274 56.5599C104.793 57.0409 104.552 57.6397 104.552 58.3565C104.552 59.0732 104.793 59.6721 105.274 60.1531C105.755 60.634 106.344 60.8745 107.042 60.8745ZM117.214 54.8199V56.0082H114.809V61.8931H113.578V56.0082H111.159V54.8199H117.214ZM123.872 54.8199H125.103V61.8931H123.872V60.6765C123.259 61.6101 122.368 62.077 121.199 62.077C120.208 62.077 119.364 61.7186 118.667 61.0018C117.969 60.2757 117.62 59.3939 117.62 58.3565C117.62 57.3191 117.969 56.442 118.667 55.7253C119.364 54.9991 120.208 54.636 121.199 54.636C122.368 54.636 123.259 55.1028 123.872 56.0365V54.8199ZM121.354 60.8887C122.071 60.8887 122.67 60.6482 123.151 60.1672C123.632 59.6768 123.872 59.0732 123.872 58.3565C123.872 57.6397 123.632 57.0409 123.151 56.5599C122.67 56.0695 122.071 55.8243 121.354 55.8243C120.647 55.8243 120.053 56.0695 119.572 56.5599C119.091 57.0409 118.85 57.6397 118.85 58.3565C118.85 59.0732 119.091 59.6768 119.572 60.1672C120.053 60.6482 120.647 60.8887 121.354 60.8887ZM127.831 58.9223C127.953 59.5542 128.241 60.0446 128.694 60.3936C129.156 60.7425 129.722 60.917 130.391 60.917C131.325 60.917 132.004 60.5727 132.428 59.8843L133.475 60.4784C132.787 61.5441 131.749 62.077 130.363 62.077C129.241 62.077 128.326 61.728 127.619 61.0301C126.921 60.3228 126.572 59.4316 126.572 58.3565C126.572 57.2908 126.916 56.4043 127.604 55.697C128.293 54.9897 129.184 54.636 130.278 54.636C131.315 54.636 132.16 55.0038 132.81 55.7394C133.47 56.4656 133.8 57.3427 133.8 58.3706C133.8 58.5498 133.786 58.7337 133.758 58.9223H127.831ZM130.278 55.796C129.618 55.796 129.071 55.9846 128.637 56.3618C128.203 56.7297 127.934 57.2248 127.831 57.8472H132.556C132.452 57.1776 132.188 56.6684 131.763 56.3194C131.339 55.9705 130.844 55.796 130.278 55.796ZM142.288 54.8199V61.8931H141.086V56.7579L138.837 60.3794H138.681L136.432 56.7579V61.8931H135.215V54.8199H136.531L138.752 58.3989L140.973 54.8199H142.288ZM151.028 62.077C149.962 62.077 149.076 61.7233 148.369 61.016C147.661 60.2992 147.308 59.4127 147.308 58.3565C147.308 57.3002 147.661 56.4184 148.369 55.7111C149.076 54.9944 149.962 54.636 151.028 54.636C151.726 54.636 152.353 54.8057 152.91 55.1453C153.466 55.4753 153.881 55.9233 154.155 56.4892L153.122 57.0833C152.943 56.7061 152.664 56.4043 152.287 56.1779C151.919 55.9516 151.5 55.8384 151.028 55.8384C150.321 55.8384 149.727 56.0789 149.246 56.5599C148.774 57.0409 148.538 57.6397 148.538 58.3565C148.538 59.0638 148.774 59.6579 149.246 60.1389C149.727 60.6199 150.321 60.8604 151.028 60.8604C151.5 60.8604 151.924 60.7519 152.301 60.535C152.679 60.3087 152.966 60.0069 153.164 59.6297L154.211 60.2379C153.909 60.7944 153.475 61.2423 152.91 61.5818C152.344 61.9119 151.717 62.077 151.028 62.077ZM158.552 61.8931V60.8179L162.046 57.2531C162.98 56.3194 163.447 55.5178 163.447 54.8482C163.447 54.2918 163.277 53.8579 162.938 53.5467C162.598 53.2355 162.183 53.0799 161.693 53.0799C160.759 53.0799 160.08 53.5231 159.656 54.4097L158.552 53.7589C158.863 53.1176 159.293 52.6319 159.84 52.3018C160.396 51.9718 161.009 51.8067 161.679 51.8067C162.509 51.8067 163.23 52.0802 163.843 52.6272C164.456 53.1742 164.763 53.9098 164.763 54.834C164.763 55.8337 164.173 56.923 162.994 58.1018L160.462 60.6199H164.946V61.8931H158.552ZM172.636 60.6765C171.966 61.6101 171.028 62.077 169.821 62.077C168.614 62.077 167.675 61.6101 167.006 60.6765C166.336 59.7428 166.001 58.4979 166.001 56.9418C166.001 55.3857 166.336 54.1409 167.006 53.2072C167.675 52.2736 168.614 51.8067 169.821 51.8067C171.028 51.8067 171.966 52.2736 172.636 53.2072C173.306 54.1409 173.64 55.3857 173.64 56.9418C173.64 58.4979 173.306 59.7428 172.636 60.6765ZM167.968 59.7853C168.402 60.4549 169.019 60.7897 169.821 60.7897C170.623 60.7897 171.24 60.4549 171.674 59.7853C172.117 59.1157 172.339 58.1679 172.339 56.9418C172.339 55.7158 172.117 54.768 171.674 54.0984C171.24 53.4194 170.623 53.0799 169.821 53.0799C169.019 53.0799 168.402 53.4147 167.968 54.0843C167.534 54.7539 167.317 55.7064 167.317 56.9418C167.317 58.1679 167.534 59.1157 167.968 59.7853ZM176.8 51.9906H177.932V61.8931H176.63V53.4053L174.522 54.0277L174.197 52.896L176.8 51.9906ZM186.949 58.7809V60.0116H185.747V61.8931H184.431V60.0116H179.381V58.7809L182.932 51.9906H184.346L180.796 58.7809H184.431V55.9799H185.747V58.7809H186.949ZM196.358 54.8199V56.0082H192.948V61.8931H191.718V54.8199H196.358ZM203.13 61.0018C202.404 61.7186 201.523 62.077 200.485 62.077C199.448 62.077 198.566 61.7186 197.84 61.0018C197.123 60.2851 196.765 59.4033 196.765 58.3565C196.765 57.3097 197.123 56.4279 197.84 55.7111C198.566 54.9944 199.448 54.636 200.485 54.636C201.523 54.636 202.404 54.9944 203.13 55.7111C203.857 56.4279 204.22 57.3097 204.22 58.3565C204.22 59.4033 203.857 60.2851 203.13 61.0018ZM200.485 60.8745C201.192 60.8745 201.787 60.634 202.268 60.1531C202.749 59.6721 202.989 59.0732 202.989 58.3565C202.989 57.6397 202.749 57.0409 202.268 56.5599C201.787 56.0789 201.192 55.8384 200.485 55.8384C199.787 55.8384 199.198 56.0789 198.717 56.5599C198.236 57.0409 197.995 57.6397 197.995 58.3565C197.995 59.0732 198.236 59.6721 198.717 60.1531C199.198 60.634 199.787 60.8745 200.485 60.8745ZM211.477 60.7189H212.453V63.7887H211.237V61.8931H205.932V63.7887H204.715V60.7189H205.578C206.031 60.0965 206.257 59.2241 206.257 58.1018V54.8199H211.477V60.7189ZM206.979 60.7189H210.261V55.9657H207.474V58.1018C207.474 59.1581 207.309 60.0305 206.979 60.7189ZM219.36 54.8199H220.591V61.8931H219.36V60.6765C218.747 61.6101 217.856 62.077 216.687 62.077C215.696 62.077 214.852 61.7186 214.154 61.0018C213.456 60.2757 213.108 59.3939 213.108 58.3565C213.108 57.3191 213.456 56.442 214.154 55.7253C214.852 54.9991 215.696 54.636 216.687 54.636C217.856 54.636 218.747 55.1028 219.36 56.0365V54.8199ZM216.842 60.8887C217.559 60.8887 218.158 60.6482 218.639 60.1672C219.12 59.6768 219.36 59.0732 219.36 58.3565C219.36 57.6397 219.12 57.0409 218.639 56.5599C218.158 56.0695 217.559 55.8243 216.842 55.8243C216.135 55.8243 215.541 56.0695 215.06 56.5599C214.579 57.0409 214.338 57.6397 214.338 58.3565C214.338 59.0732 214.579 59.6768 215.06 60.1672C215.541 60.6482 216.135 60.8887 216.842 60.8887Z" fill="#C60000"/>
</svg>
