<svg width="41" height="39" viewBox="0 0 41 39" fill="none" xmlns="http://www.w3.org/2000/svg">
<g clip-path="url(#clip0)">
<g filter="url(#filter0_b)">
<path d="M1.31128 19.5C1.31128 14.8894 1.31238 11.4827 1.67035 8.86946C2.02622 6.27157 2.72633 4.53242 4.0711 3.21255C5.41717 1.89141 7.19296 1.20254 9.84436 0.852666C12.5092 0.501024 15.9824 0.5 20.6792 0.5C25.376 0.5 28.8492 0.501024 31.514 0.852666C34.1654 1.20254 35.9412 1.89141 37.2873 3.21255C38.6321 4.53242 39.3322 6.27157 39.6881 8.86946C40.046 11.4827 40.0471 14.8894 40.0471 19.5C40.0471 24.1106 40.046 27.5173 39.6881 30.1305C39.3322 32.7284 38.6321 34.4676 37.2873 35.7874C35.9412 37.1086 34.1654 37.7975 31.514 38.1473C28.8492 38.499 25.376 38.5 20.6792 38.5C15.9824 38.5 12.5092 38.499 9.84436 38.1473C7.19296 37.7975 5.41717 37.1086 4.0711 35.7874C2.72633 34.4676 2.02622 32.7284 1.67035 30.1305C1.31238 27.5173 1.31128 24.1106 1.31128 19.5Z" stroke="white"/>
</g>
<g clip-path="url(#clip1)">
<path d="M30.2039 14.819C29.9749 13.9836 29.3039 13.3252 28.4529 13.1002C26.8981 12.6826 20.6791 12.6826 20.6791 12.6826C20.6791 12.6826 14.4603 12.6826 12.9055 13.0843C12.0709 13.3091 11.3835 13.9838 11.1545 14.819C10.7454 16.3448 10.7454 19.5092 10.7454 19.5092C10.7454 19.5092 10.7454 22.6895 11.1545 24.1994C11.3837 25.0346 12.0546 25.6932 12.9057 25.9182C14.4766 26.3358 20.6793 26.3358 20.6793 26.3358C20.6793 26.3358 26.8981 26.3358 28.4529 25.9341C29.304 25.7093 29.9749 25.0507 30.2041 24.2155C30.6132 22.6895 30.6132 19.5253 30.6132 19.5253C30.6132 19.5253 30.6296 16.3448 30.2039 14.819Z" fill="white"/>
<path d="M18.699 22.4327L23.8704 19.5093L18.699 16.5859V22.4327Z" fill="#636363"/>
</g>
</g>
<rect x="1.81128" y="1" width="37.7358" height="37" rx="18.5" stroke="white" stroke-width="2"/>
<defs>
<filter id="filter0_b" x="-23.1887" y="-24" width="87.7358" height="87" filterUnits="userSpaceOnUse" color-interpolation-filters="sRGB">
<feFlood flood-opacity="0" result="BackgroundImageFix"/>
<feGaussianBlur in="BackgroundImage" stdDeviation="12"/>
<feComposite in2="SourceAlpha" operator="in" result="effect1_backgroundBlur"/>
<feBlend mode="normal" in="SourceGraphic" in2="effect1_backgroundBlur" result="shape"/>
</filter>
<clipPath id="clip0">
</clipPath>
<clipPath id="clip1">
<rect width="19.8679" height="19.5" fill="white" transform="translate(10.7454 9.75)"/>
</clipPath>
</defs>
</svg>
